<svg width="22" height="22" viewBox="0 0 22 22" stroke="currentColor" fill="none" xmlns="http://www.w3.org/2000/svg">
<path d="M14.3399 13.12C14.5481 14.0011 14.5542 14.9178 14.3578 15.8016C14.1614 16.6854 13.7676 17.5133 13.2058 18.2232C12.644 18.9332 11.9288 19.5068 11.1138 19.9011C10.2988 20.2954 9.4052 20.5001 8.49986 20.5V15.7C10.6102 15.2714 12.6018 14.3913 14.3399 13.12ZM14.3399 13.12C16.2497 11.7288 17.8034 9.9055 18.874 7.79908C19.9446 5.69267 20.5017 3.36287 20.4999 1C18.1372 0.998298 15.8076 1.55549 13.7013 2.62607C11.5951 3.69665 9.77198 5.25026 8.38086 7.16" stroke="black" stroke-width="1.5" stroke-linecap="round" stroke-linejoin="round"/>
<path d="M5.8 13.0001H1C0.999835 12.0947 1.2046 11.2009 1.59895 10.3859C1.9933 9.57079 2.567 8.85555 3.27707 8.29373C3.98714 7.73191 4.81516 7.33808 5.69907 7.14176C6.58298 6.94544 7.49986 6.95171 8.381 7.16012C7.10988 8.89793 6.22875 10.8902 5.8 13.0001ZM5.8 13.0001C5.77889 13.1039 5.75989 13.2079 5.741 13.3121C6.46038 14.2193 7.28179 15.0407 8.189 15.7601C8.293 15.7411 8.397 15.7211 8.5 15.7001" stroke="black" stroke-width="1.5" stroke-linecap="round" stroke-linejoin="round"/>
<path d="M3.81196 15C3.15414 15.4892 2.64268 16.149 2.33298 16.908C2.02328 17.667 1.92713 18.4963 2.05496 19.306C2.86478 19.4337 3.69412 19.3374 4.45314 19.0275C5.21215 18.7177 5.87191 18.206 6.36096 17.548" stroke="#FF0000" stroke-width="1.5" stroke-linecap="round" stroke-linejoin="round"/>
<path d="M15.25 7.75C15.25 8.14782 15.092 8.52936 14.8107 8.81066C14.5294 9.09196 14.1478 9.25 13.75 9.25C13.3522 9.25 12.9706 9.09196 12.6893 8.81066C12.408 8.52936 12.25 8.14782 12.25 7.75C12.25 7.35218 12.408 6.97064 12.6893 6.68934C12.9706 6.40804 13.3522 6.25 13.75 6.25C14.1478 6.25 14.5294 6.40804 14.8107 6.68934C15.092 6.97064 15.25 7.35218 15.25 7.75Z" stroke="black" stroke-width="1.5" stroke-linecap="round" stroke-linejoin="round"/>
</svg>
